<svg width="76" height="77" viewBox="0 0 76 77" fill="none" xmlns="http://www.w3.org/2000/svg">
<path d="M0 4C0 1.79086 1.79086 0 4 0H72C74.2091 0 76 1.79086 76 4V72.6667C76 74.8758 74.2091 76.6667 72 76.6667H4C1.79086 76.6667 0 74.8758 0 72.6667V4Z" fill="#F7EAD0"/>
<path d="M10 18C10 13.5817 13.5817 10 18 10H58C62.4183 10 66 13.5817 66 18V58.6667C66 63.0849 62.4183 66.6667 58 66.6667H18C13.5817 66.6667 10 63.0849 10 58.6667V18Z" fill="#D89614"/>
<path d="M38.0013 25.5C32.3704 25.5 27.7739 29.9332 27.513 35.4986C27.4693 36.4321 26.6996 37.1667 25.765 37.1667H25.168C21.302 37.1667 18.168 40.3006 18.168 44.1667C18.168 48.0328 21.302 51.1667 25.168 51.1667H50.8346C54.7007 51.1667 57.8346 48.0328 57.8346 44.1667C57.8346 40.3006 54.7007 37.1667 50.8346 37.1667H50.2378C49.303 37.1667 48.5333 36.4321 48.4896 35.4986C48.2288 29.9332 43.6321 25.5 38.0013 25.5ZM24.1875 33.7118C25.2802 27.0677 31.0485 22 38.0013 22C44.9542 22 50.7224 27.0677 51.8151 33.7118C57.1545 34.2063 61.3346 38.6983 61.3346 44.1667C61.3346 49.9657 56.6337 54.6667 50.8346 54.6667H25.168C19.369 54.6667 14.668 49.9657 14.668 44.1667C14.668 38.6983 18.8483 34.2063 24.1875 33.7118Z" fill="white"/>
</svg>
