<svg width="87" height="87" viewBox="0 0 87 87" fill="none" xmlns="http://www.w3.org/2000/svg">
<path d="M0 4.00414C0 1.79501 1.79086 0.00415039 4 0.00415039H82.6581C84.8672 0.00415039 86.6581 1.79501 86.6581 4.00415V82.6625C86.6581 84.8717 84.8672 86.6625 82.6581 86.6625H4C1.79086 86.6625 0 84.8717 0 82.6625V4.00414Z" fill="#EDF7E8"/>
<path d="M10 18.0041C10 13.5859 13.5817 10.0042 18 10.0042H68.6581C73.0764 10.0042 76.6581 13.5859 76.6581 18.0042V68.6625C76.6581 73.0808 73.0764 76.6625 68.6581 76.6625H18C13.5817 76.6625 10 73.0808 10 68.6625V18.0041Z" fill="#49AA19"/>
<path d="M46.302 20.0049C45.8291 19.9909 45.3706 20.1689 45.0311 20.4984C44.6916 20.828 44.5 21.281 44.5 21.7542V40.412C44.5 41.3787 45.2835 42.162 46.25 42.162H64.908C65.3812 42.162 65.8341 41.9705 66.1636 41.631C66.4933 41.2915 66.6713 40.833 66.6573 40.36C66.3272 29.2666 57.3956 20.3351 46.302 20.0049ZM48 38.6622V23.6496C55.7982 24.6884 61.9739 30.864 63.0127 38.6622H48ZM41 26.4909C41 25.9994 40.7933 25.5307 40.4307 25.1991C40.0678 24.8676 39.5825 24.7039 39.093 24.748C28.3878 25.7127 20 34.707 20 45.6625C20 57.2603 29.402 66.6625 41 66.6625C51.9555 66.6625 60.9498 58.2747 61.9144 47.5695C61.9585 47.08 61.7949 46.5947 61.4633 46.2318C61.1318 45.869 60.663 45.6625 60.1716 45.6625H41V26.4909ZM23.5 45.6625C23.5 37.1964 29.5128 30.133 37.5 28.5122V47.4125C37.5 48.379 38.2835 49.1625 39.25 49.1625H58.1502C56.5295 57.1495 49.466 63.1625 41 63.1625C31.335 63.1625 23.5 55.3274 23.5 45.6625Z" fill="white"/>
</svg>
