<svg width="23" height="22" viewBox="0 0 23 22" fill="none" xmlns="http://www.w3.org/2000/svg">
<g clip-path="url(#clip0_2131_2052)">
<path d="M4.46097 11L4.46097 11C4.46106 11.8108 4.59828 12.5911 4.85201 13.3173L4.22403 15.6617L2.11092 15.7064C1.40012 14.2913 1 12.6932 1 11C1 9.38884 1.36221 7.86393 2.01008 6.50074L3.87167 6.84204L4.77924 8.90141C4.5726 9.56447 4.46097 10.2696 4.46097 11Z" fill="#FBBB00" stroke="#115EA5"/>
<path d="M22.3082 8.94507C22.4345 9.61048 22.5004 10.2977 22.5004 11C22.5004 11.7875 22.4176 12.5557 22.2598 13.2967C21.7243 15.8183 20.3252 18.0201 18.3869 19.5782L18.3863 19.5776L15.2477 19.4175L14.8035 16.6445C16.0896 15.8902 17.0947 14.7098 17.6242 13.2967H11.7422V8.94507H22.3082Z" fill="#518EF8"/>
<path d="M18.3874 19.5776L18.388 19.5782C16.503 21.0934 14.1083 22 11.5016 22C7.3125 22 3.67043 19.6586 1.8125 16.2129L5.37723 13.2949C6.30617 15.7741 8.69777 17.539 11.5016 17.539C12.7067 17.539 13.8358 17.2132 14.8046 16.6445L18.3874 19.5776Z" fill="#28B446"/>
<path d="M18.5218 2.53241L14.9583 5.44981C13.9556 4.82307 12.7703 4.46102 11.5005 4.46102C8.63327 4.46102 6.19694 6.30682 5.31454 8.87494L1.73107 5.9412H1.73047C3.5612 2.41154 7.2492 0 11.5005 0C14.1695 0 16.6167 0.950727 18.5218 2.53241Z" fill="#F14336"/>
</g>
<defs>
<clipPath id="clip0_2131_2052">
<rect width="22" height="22" fill="white" transform="translate(0.5)"/>
</clipPath>
</defs>
</svg>
